<?xml version="1.0" standalone="no"?>
<!DOCTYPE svg PUBLIC "-//W3C//DTD SVG 20010904//EN"
 "http://www.w3.org/TR/2001/REC-SVG-20010904/DTD/svg10.dtd">
<svg version="1.0" xmlns="http://www.w3.org/2000/svg"
 width="260.000000pt" height="260.000000pt" viewBox="0 0 260.000000 260.000000"
 preserveAspectRatio="xMidYMid meet">
<metadata>
Created by potrace 1.11, written by Peter Selinger 2001-2013
</metadata>
<g transform="translate(0.000000,260.000000) scale(0.100000,-0.100000)"
fill="#000000" stroke="none">
<path d="M0 1300 l0 -1300 1300 0 1300 0 0 1300 0 1300 -1300 0 -1300 0 0
-1300z m1498 595 l192 -386 -67 3 -67 3 -125 253 c-69 138 -128 252 -131 252
-6 0 -320 -633 -320 -645 0 -3 114 -5 253 -5 l253 0 32 -65 c18 -36 32 -68 32
-70 0 -3 -175 -5 -390 -5 l-390 0 262 525 c145 289 265 525 268 525 3 0 92
-173 198 -385z m527 -1055 l265 -530 -990 0 -990 0 195 390 195 390 65 0 c36
0 65 -3 65 -7 0 -5 -68 -145 -150 -312 -83 -167 -150 -307 -150 -312 0 -5 331
-9 770 -9 424 0 770 4 770 8 0 5 -99 210 -220 456 -121 246 -220 449 -220 452
0 2 29 4 65 4 l65 0 265 -530z"/>
</g>
</svg>
